<?xml version="1.0" encoding="UTF-8"?>
<!DOCTYPE svg PUBLIC "-//W3C//DTD SVG 1.1//EN" "http://www.w3.org/Graphics/SVG/1.1/DTD/svg11.dtd">
<svg xmlns="http://www.w3.org/2000/svg" xmlns:xlink="http://www.w3.org/1999/xlink" version="1.1" width="611px" height="341px" viewBox="-0.5 -0.5 611 341" style="background-color: rgb(255, 255, 255);"><defs/><g><path d="M 120 175.8 L 165 175.8 L 207.76 175.99" fill="none" stroke="#666666" stroke-miterlimit="10" stroke-dasharray="3 3" pointer-events="stroke"/><path d="M 201.87 179.46 L 208.88 176 L 201.9 172.46" fill="none" stroke="#666666" stroke-miterlimit="10" pointer-events="all"/><rect x="0" y="90.8" width="120" height="170" rx="18" ry="18" fill="#e1d5e7" stroke="#9673a6" pointer-events="all"/><rect x="10" y="110.8" width="100" height="20" fill="none" stroke="none" pointer-events="all"/><g fill="#000000" font-family="Helvetica" text-anchor="middle" font-size="12px"><text x="59.5" y="125.3">CSAM Hashes</text></g><rect x="35.8" y="140.8" width="48.41" height="59" fill="none" stroke="none" pointer-events="all"/><path d="M 54.73 179.85 L 74.66 179.85 L 74.66 177.17 L 54.73 177.17 Z M 54.73 171.64 L 79.35 171.64 L 79.35 168.96 L 54.73 168.96 Z M 54.73 163.43 L 65.28 163.43 L 65.28 160.75 L 54.73 160.75 Z M 38.48 187.72 L 39.49 187.72 L 39.49 190.4 L 37.14 190.4 C 36.4 190.4 35.8 189.8 35.8 189.06 L 35.8 142.16 C 35.8 141.42 36.4 140.82 37.14 140.82 L 59.42 140.82 L 59.42 143.5 L 38.48 143.5 Z M 45.52 192.41 L 47.69 192.41 L 47.69 195.09 L 44.18 195.09 C 43.44 195.09 42.83 194.49 42.83 193.75 L 42.83 146.85 C 42.83 146.11 43.44 145.51 44.18 145.51 L 65.28 145.51 L 65.28 148.19 L 45.52 148.19 Z M 52.55 197.1 L 52.55 152.88 L 69.8 152.88 L 69.8 163.26 C 69.8 164.01 70.4 164.6 71.14 164.6 L 81.53 164.6 L 81.53 197.1 Z M 72.49 154.78 L 79.63 161.92 L 72.49 161.92 Z M 83.82 162.32 L 72.09 150.59 C 71.84 150.34 71.5 150.2 71.14 150.2 L 51.21 150.2 C 50.47 150.2 49.87 150.8 49.87 151.54 L 49.87 198.44 C 49.87 199.18 50.47 199.78 51.21 199.78 L 82.87 199.78 C 83.61 199.78 84.21 199.18 84.21 198.44 L 84.21 163.26 C 84.21 162.91 84.07 162.57 83.82 162.32 Z" fill="#2b2b2b" stroke="none" pointer-events="all"/><rect x="10" y="210.8" width="100" height="20" fill="none" stroke="none" pointer-events="all"/><g fill="#000000" font-family="Helvetica" text-anchor="middle" font-size="12px"><text x="59.5" y="225.3">Image hashes</text></g><rect x="210" y="76" width="150" height="200" rx="22.5" ry="22.5" fill="#d5e8d4" stroke="#82b366" pointer-events="all"/><rect x="235" y="96" width="100" height="20" fill="none" stroke="none" pointer-events="all"/><g fill="#000000" font-family="Helvetica" text-anchor="middle" font-size="12px"><text x="284.5" y="110.5">Client device</text></g><rect x="235" y="126" width="31.79" height="40" fill="none" stroke="none" pointer-events="all"/><path d="M 250.22 149.79 C 250.4 149.61 250.64 149.51 250.89 149.51 L 250.9 149.51 C 251.15 149.51 251.39 149.61 251.57 149.79 C 251.75 149.97 251.85 150.21 251.85 150.47 L 251.85 150.47 C 251.85 150.72 251.75 150.97 251.57 151.14 C 251.39 151.32 251.15 151.42 250.9 151.42 L 250.89 151.42 C 250.37 151.42 249.94 150.99 249.94 150.47 C 249.94 150.21 250.04 149.97 250.22 149.79 Z M 249.99 153.07 L 249.99 156.26 L 251.8 156.26 L 251.8 153.07 C 252.19 152.94 252.55 152.72 252.85 152.43 C 253.37 151.9 253.66 151.21 253.66 150.47 C 253.66 149.73 253.37 149.04 252.85 148.52 C 252.33 147.99 251.63 147.7 250.9 147.7 L 250.89 147.7 C 250.16 147.7 249.46 147.99 248.94 148.51 C 248.42 149.03 248.13 149.73 248.13 150.47 C 248.13 151.67 248.91 152.69 249.99 153.07 Z M 258.66 158.51 L 243.15 158.5 L 243.16 146.12 L 258.67 146.12 Z M 247.07 141.4 C 247.07 140.33 247.48 139.33 248.21 138.58 C 248.93 137.84 249.89 137.44 250.9 137.44 L 250.91 137.44 C 251.93 137.44 252.88 137.86 253.59 138.6 C 254.32 139.36 254.71 140.37 254.71 141.45 L 254.71 144.31 L 247.05 144.31 Z M 259.57 144.31 L 256.52 144.31 L 256.52 141.45 C 256.52 139.91 255.95 138.45 254.9 137.36 C 253.84 136.25 252.43 135.63 250.92 135.63 L 250.9 135.63 C 249.4 135.63 247.98 136.23 246.92 137.32 C 245.85 138.41 245.27 139.85 245.26 141.39 L 245.25 144.31 L 242.25 144.31 C 242.01 144.31 241.78 144.4 241.61 144.57 C 241.44 144.74 241.35 144.97 241.35 145.21 L 241.35 159.41 C 241.35 159.91 241.75 160.31 242.25 160.31 L 259.57 160.32 C 260.07 160.32 260.47 159.91 260.47 159.41 L 260.48 145.22 C 260.48 144.98 260.38 144.75 260.21 144.58 C 260.04 144.41 259.81 144.31 259.57 144.31 Z M 264.98 163.51 C 264.98 163.8 264.75 164.03 264.46 164.03 L 237.33 164.03 C 237.04 164.03 236.81 163.8 236.81 163.51 L 236.81 128.49 C 236.81 128.2 237.04 127.97 237.33 127.97 L 256.3 127.97 L 256.3 135.74 C 256.3 136.24 256.71 136.65 257.21 136.65 L 264.98 136.65 L 264.98 147.11 Z M 258.11 129.25 L 263.7 134.84 L 258.11 134.84 Z M 257.58 126.16 L 237.33 126.16 C 236.05 126.16 235 127.21 235 128.49 L 235 163.51 C 235 164.79 236.05 165.84 237.33 165.84 L 264.46 165.84 C 265.74 165.84 266.79 164.79 266.79 163.51 L 266.79 147.11 L 266.79 136.27 L 266.79 135.37 Z" fill="#2b2b2b" stroke="none" pointer-events="all"/><rect x="292" y="126" width="42.74" height="40" fill="none" stroke="none" pointer-events="all"/><path d="M 326.36 160.58 L 326.36 159.15 L 328.47 159.15 L 328.47 160.58 Z M 329.44 157.21 L 325.39 157.21 C 324.86 157.21 324.43 157.65 324.43 158.18 L 324.43 161.55 C 324.43 162.08 324.86 162.52 325.39 162.52 L 329.44 162.52 C 329.97 162.52 330.4 162.08 330.4 161.55 L 330.4 158.18 C 330.4 157.65 329.97 157.21 329.44 157.21 Z M 316.93 160.58 L 316.93 159.15 L 319.04 159.15 L 319.04 160.58 Z M 320 157.21 L 315.96 157.21 C 315.43 157.21 314.99 157.65 314.99 158.18 L 314.99 161.55 C 314.99 162.08 315.43 162.52 315.96 162.52 L 320 162.52 C 320.54 162.52 320.97 162.08 320.97 161.55 L 320.97 158.18 C 320.97 157.65 320.54 157.21 320 157.21 Z M 307.74 160.58 L 307.74 159.15 L 309.85 159.15 L 309.85 160.58 Z M 310.81 157.21 L 306.77 157.21 C 306.24 157.21 305.8 157.65 305.8 158.18 L 305.8 161.55 C 305.8 162.08 306.24 162.52 306.77 162.52 L 310.81 162.52 C 311.35 162.52 311.78 162.08 311.78 161.55 L 311.78 158.18 C 311.78 157.65 311.35 157.21 310.81 157.21 Z M 298.31 160.58 L 298.31 159.15 L 300.41 159.15 L 300.41 160.58 Z M 301.38 157.21 L 297.34 157.21 C 296.8 157.21 296.37 157.65 296.37 158.18 L 296.37 161.55 C 296.37 162.08 296.8 162.52 297.34 162.52 L 301.38 162.52 C 301.91 162.52 302.35 162.08 302.35 161.55 L 302.35 158.18 C 302.35 157.65 301.91 157.21 301.38 157.21 Z M 326.36 132.67 L 326.36 131.24 L 328.47 131.24 L 328.47 132.67 Z M 329.44 129.31 L 325.39 129.31 C 324.86 129.31 324.43 129.74 324.43 130.27 L 324.43 133.64 C 324.43 134.18 324.86 134.61 325.39 134.61 L 329.44 134.61 C 329.97 134.61 330.4 134.18 330.4 133.64 L 330.4 130.27 C 330.4 129.74 329.97 129.31 329.44 129.31 Z M 316.93 132.67 L 316.93 131.24 L 319.04 131.24 L 319.04 132.67 Z M 315.96 134.61 L 320 134.61 C 320.54 134.61 320.97 134.18 320.97 133.64 L 320.97 130.27 C 320.97 129.74 320.54 129.31 320 129.31 L 315.96 129.31 C 315.43 129.31 314.99 129.74 314.99 130.27 L 314.99 133.64 C 314.99 134.18 315.43 134.61 315.96 134.61 Z M 307.74 132.67 L 307.74 131.24 L 309.85 131.24 L 309.85 132.67 Z M 306.77 134.61 L 310.81 134.61 C 311.35 134.61 311.78 134.18 311.78 133.64 L 311.78 130.27 C 311.78 129.74 311.35 129.31 310.81 129.31 L 306.77 129.31 C 306.24 129.31 305.8 129.74 305.8 130.27 L 305.8 133.64 C 305.8 134.18 306.24 134.61 306.77 134.61 Z M 298.31 132.67 L 298.31 131.24 L 300.41 131.24 L 300.41 132.67 Z M 301.38 129.31 L 297.34 129.31 C 296.8 129.31 296.37 129.74 296.37 130.27 L 296.37 133.64 C 296.37 134.18 296.8 134.61 297.34 134.61 L 301.38 134.61 C 301.91 134.61 302.35 134.18 302.35 133.64 L 302.35 130.27 C 302.35 129.74 301.91 129.31 301.38 129.31 Z M 332.66 162.93 C 332.66 163.55 332.15 164.07 331.53 164.07 L 295.21 164.07 C 294.59 164.07 294.08 163.55 294.08 162.93 L 294.08 129.07 C 294.08 128.44 294.59 127.93 295.21 127.93 L 331.53 127.93 C 332.15 127.93 332.66 128.44 332.66 129.07 Z M 331.53 126 L 295.21 126 C 293.52 126 292.14 127.38 292.14 129.07 L 292.14 162.93 C 292.14 164.62 293.52 166 295.21 166 L 331.53 166 C 333.22 166 334.6 164.62 334.6 162.93 L 334.6 129.07 C 334.6 127.38 333.22 126 331.53 126 Z M 311.39 142.65 L 317.1 145.96 L 311.39 149.27 Z M 309.94 140.14 C 309.64 140.31 309.46 140.63 309.46 140.97 L 309.46 150.94 C 309.46 151.29 309.64 151.61 309.94 151.78 C 310.09 151.87 310.26 151.91 310.42 151.91 C 310.59 151.91 310.76 151.87 310.91 151.78 L 319.52 146.8 C 319.82 146.62 320 146.3 320 145.96 C 320 145.61 319.82 145.29 319.52 145.12 L 310.91 140.14 C 310.61 139.96 310.24 139.96 309.94 140.14 Z M 313.37 153.6 C 309.28 153.6 305.95 150.17 305.95 145.96 C 305.95 141.74 309.28 138.32 313.37 138.32 C 317.46 138.32 320.79 141.74 320.79 145.96 C 320.79 150.17 317.46 153.6 313.37 153.6 Z M 313.37 136.38 C 308.21 136.38 304.02 140.68 304.02 145.96 C 304.02 151.24 308.21 155.54 313.37 155.54 C 318.53 155.54 322.72 151.24 322.72 145.96 C 322.72 140.68 318.53 136.38 313.37 136.38 Z" fill="#2b2b2b" stroke="none" pointer-events="all"/><rect x="225" y="206" width="120" height="50" rx="7.5" ry="7.5" fill="#ace6ac" stroke="#82b366" pointer-events="all"/><rect x="242.5" y="221" width="85" height="20" fill="none" stroke="none" pointer-events="all"/><g fill="#000000" font-family="Helvetica" text-anchor="middle" font-size="12px"><text x="284.5" y="228.5">Safety voucher </text><text x="284.5" y="242.5">generation</text></g><path d="M 250.7 166 L 250.98 203.76" fill="none" stroke="#666666" stroke-miterlimit="10" stroke-dasharray="3 3" pointer-events="stroke"/><path d="M 247.44 197.91 L 250.99 204.88 L 254.44 197.86" fill="none" stroke="#666666" stroke-miterlimit="10" pointer-events="all"/><path d="M 313.17 166 L 313.45 203.76" fill="none" stroke="#666666" stroke-miterlimit="10" stroke-dasharray="3 3" pointer-events="stroke"/><path d="M 309.91 197.91 L 313.46 204.88 L 316.91 197.86" fill="none" stroke="#666666" stroke-miterlimit="10" pointer-events="all"/><rect x="135" y="186" width="60" height="20" fill="none" stroke="none" pointer-events="all"/><g fill="#000000" font-family="Helvetica" text-anchor="middle" font-size="12px"><text x="164.5" y="193.5">Blinded and </text><text x="164.5" y="207.5">embedded</text></g><rect x="440" y="0.48" width="170" height="339.65" rx="25.5" ry="25.5" fill="#a6c0fc" stroke="#6c8ebf" pointer-events="all"/><rect x="475" y="10.48" width="100" height="20" fill="none" stroke="none" pointer-events="all"/><g fill="#000000" font-family="Helvetica" text-anchor="middle" font-size="12px"><text x="524.5" y="24.98">iCloud</text></g><rect x="465" y="80.13" width="120" height="60" rx="9" ry="9" fill="#dae8fc" stroke="#6c8ebf" pointer-events="all"/><rect x="482.5" y="100.13" width="85" height="20" fill="none" stroke="none" pointer-events="all"/><g fill="#000000" font-family="Helvetica" text-anchor="middle" font-size="12px"><text x="524.5" y="114.63">PSI Matching</text></g><rect x="465" y="164.78" width="120" height="60" rx="9" ry="9" fill="#dae8fc" stroke="#6c8ebf" pointer-events="all"/><rect x="482.5" y="184.78" width="85" height="20" fill="none" stroke="none" pointer-events="all"/><g fill="#000000" font-family="Helvetica" text-anchor="middle" font-size="12px"><text x="524.5" y="192.28">iCloud filtered </text><text x="524.5" y="206.28">safety vouchers</text></g><rect x="465" y="250.13" width="120" height="60" rx="9" ry="9" fill="#dae8fc" stroke="#6c8ebf" pointer-events="all"/><rect x="482.5" y="270.13" width="85" height="20" fill="none" stroke="none" pointer-events="all"/><g fill="#000000" font-family="Helvetica" text-anchor="middle" font-size="12px"><text x="524.5" y="277.63">If threshold </text><text x="524.5" y="291.63">exceeded, decrypt</text></g><path d="M 345 230.8 L 382.52 230.8 Q 392.52 230.8 392.52 220.8 L 392.52 60.12 Q 392.52 50.12 402.52 50.11 L 436.57 50.07" fill="none" stroke="#666666" stroke-miterlimit="10" stroke-dasharray="3 3" pointer-events="stroke"/><path d="M 430.7 53.58 L 437.69 50.07 L 430.69 46.58" fill="none" stroke="#666666" stroke-miterlimit="10" pointer-events="all"/><path d="M 525 140.64 L 525 162.54" fill="none" stroke="#666666" stroke-miterlimit="10" stroke-dasharray="3 3" pointer-events="stroke"/><path d="M 521.5 156.66 L 525 163.66 L 528.5 156.66" fill="none" stroke="#666666" stroke-miterlimit="10" pointer-events="all"/><path d="M 524.8 225.28 L 524.8 247.18" fill="none" stroke="#666666" stroke-miterlimit="10" stroke-dasharray="3 3" pointer-events="stroke"/><path d="M 521.3 241.3 L 524.8 248.3 L 528.3 241.3" fill="none" stroke="#666666" stroke-miterlimit="10" pointer-events="all"/><rect x="375" y="30.48" width="40" height="20" fill="none" stroke="none" pointer-events="all"/><g fill="#000000" font-family="Helvetica" text-anchor="middle" font-size="12px"><text x="394.5" y="44.98">Upload</text></g><path d="M 509.99 66.65 C 506.03 66.21 502.67 63.57 501.34 59.87 C 500.01 56.16 500.94 52.03 503.73 49.23 C 506.53 46.42 510.7 45.44 514.48 46.69 C 516.91 38.73 525.42 34.23 533.48 36.63 C 541.54 39.03 546.11 47.43 543.68 55.39 C 546.65 55.28 549.23 57.43 549.61 60.35 C 550 63.26 548.08 65.99 545.17 66.65 C 545.19 66.61 509.93 66.73 509.93 66.73 Z" fill="#2b2b2b" stroke="none" pointer-events="all"/></g></svg>